<?xml version="1.0" standalone="no"?>
<!DOCTYPE svg PUBLIC "-//W3C//DTD SVG 20010904//EN"
 "http://www.w3.org/TR/2001/REC-SVG-20010904/DTD/svg10.dtd">
<svg version="1.0" xmlns="http://www.w3.org/2000/svg"
 width="512.000000pt" height="512.000000pt" viewBox="0 0 512.000000 512.000000"
 preserveAspectRatio="xMidYMid meet">

<g transform="translate(0.000000,512.000000) scale(0.100000,-0.100000)"
fill="#000000" stroke="none">
<path d="M2364 4976 c-465 -89 -825 -433 -931 -891 -14 -62 -18 -119 -18 -250
1 -195 17 -279 84 -441 110 -262 344 -499 602 -610 259 -110 560 -124 818 -38
313 105 576 348 702 648 68 164 83 245 83 446 0 148 -3 189 -22 263 -106 421
-425 745 -840 854 -120 31 -363 41 -478 19z"/>
<path d="M2245 2419 c-554 -52 -1022 -230 -1370 -521 -245 -204 -403 -426
-463 -647 l-26 -96 0 -470 c-1 -446 0 -471 18 -498 41 -61 -118 -57 2156 -57
2274 0 2115 -4 2156 57 18 27 19 52 18 498 l0 470 -26 96 c-60 220 -219 443
-459 644 -362 302 -813 472 -1394 525 -128 12 -480 11 -610 -1z"/>
</g>
</svg>
